<svg width="69" height="69" viewBox="0 0 69 69" fill="none" xmlns="http://www.w3.org/2000/svg">
<path d="M8.625 63.25H60.375" stroke="#79EFBC" stroke-width="4" stroke-linecap="round" stroke-linejoin="round"/>
<path d="M16.0999 24.0925H11.5C9.91875 24.0925 8.625 25.3863 8.625 26.9675V51.75C8.625 53.3313 9.91875 54.625 11.5 54.625H16.0999C17.6812 54.625 18.9749 53.3313 18.9749 51.75V26.9675C18.9749 25.3863 17.6812 24.0925 16.0999 24.0925Z" stroke="#79EFBC" stroke-width="4" stroke-linecap="round" stroke-linejoin="round"/>
<path d="M36.7999 14.9211H32.2C30.6188 14.9211 29.325 16.2149 29.325 17.7961V51.7499C29.325 53.3311 30.6188 54.6249 32.2 54.6249H36.7999C38.3812 54.6249 39.6749 53.3311 39.6749 51.7499V17.7961C39.6749 16.2149 38.3812 14.9211 36.7999 14.9211Z" stroke="#79EFBC" stroke-width="4" stroke-linecap="round" stroke-linejoin="round"/>
<path d="M57.5 5.75H52.9001C51.3188 5.75 50.0251 7.04375 50.0251 8.625V51.75C50.0251 53.3313 51.3188 54.625 52.9001 54.625H57.5C59.0813 54.625 60.375 53.3313 60.375 51.75V8.625C60.375 7.04375 59.0813 5.75 57.5 5.75Z" stroke="#79EFBC" stroke-width="4" stroke-linecap="round" stroke-linejoin="round"/>
</svg>
